<?xml version="1.0" encoding="UTF-8"?>
<svg xmlns="http://www.w3.org/2000/svg" xmlns:xlink="http://www.w3.org/1999/xlink" width="300px" height="62px" viewBox="0 0 300 62" version="1.1">
<g id="surface1">
<path style=" stroke:none;fill-rule:nonzero;fill:rgb(7.45098%,19.215686%,36.078431%);fill-opacity:1;" d="M 106.371094 0.332031 C 104.761719 0.589844 103.152344 1.464844 102.589844 2.394531 C 102 3.347656 102.027344 4.84375 102.644531 6.160156 C 103.394531 7.757812 104.707031 8.25 108.972656 8.585938 C 117.070312 9.230469 117.445312 9.539062 117.984375 15.445312 C 118.332031 19.46875 118.816406 21.917969 119.621094 23.515625 C 119.96875 24.214844 121.496094 25.96875 123.402344 27.851562 L 126.566406 30.96875 L 123.640625 33.78125 C 119.324219 37.933594 118.574219 39.738281 117.984375 46.960938 C 117.6875 50.804688 117.5 51.242188 115.785156 52.351562 C 114.792969 52.96875 114.363281 53.074219 111.171875 53.226562 C 105.78125 53.539062 104.761719 53.769531 103.261719 55.109375 C 102 56.195312 101.785156 56.941406 102.242188 58.488281 C 102.75 60.089844 103.714844 61.015625 105.433594 61.507812 C 107.175781 61.996094 114.710938 61.917969 117.019531 61.351562 C 120.71875 60.5 123.882812 58.566406 125.976562 55.9375 C 128.199219 53.125 128.601562 51.808594 128.925781 46.339844 C 129.058594 44.070312 129.246094 42.035156 129.355469 41.800781 C 129.460938 41.570312 131.367188 39.816406 133.589844 37.90625 C 139.382812 32.957031 139.222656 33.136719 139.355469 31.125 L 139.464844 29.449219 L 137.238281 27.335938 C 136.003906 26.171875 133.753906 24.136719 132.25 22.820312 C 130.453125 21.246094 129.488281 20.214844 129.382812 19.726562 C 129.300781 19.339844 129.058594 17.121094 128.84375 14.773438 C 128.386719 9.769531 127.933594 8.351562 125.976562 6.058594 C 123.804688 3.503906 121.226562 1.851562 118.226562 1.027344 C 115.007812 0.152344 109.507812 -0.160156 106.371094 0.332031 Z M 106.371094 0.332031 "/>
<path style=" stroke:none;fill-rule:nonzero;fill:rgb(7.45098%,19.215686%,36.078431%);fill-opacity:1;" d="M 202.96875 10.210938 C 202.96875 18.953125 202.914062 20.421875 202.539062 20.914062 C 202.136719 21.453125 201.976562 21.480469 197.335938 21.480469 C 191.328125 21.480469 191.703125 21.789062 191.703125 16.683594 C 191.703125 11.859375 191.464844 12.09375 196.960938 11.988281 L 201.089844 11.910156 L 201.089844 7.8125 L 196.691406 7.8125 C 192.402344 7.8125 192.265625 7.835938 190.871094 8.53125 C 189.828125 9.046875 189.210938 9.589844 188.621094 10.519531 C 187.816406 11.757812 187.816406 11.808594 187.734375 16.011719 C 187.683594 18.589844 187.761719 20.707031 187.921875 21.402344 C 188.351562 23 189.371094 24.367188 190.710938 25.117188 C 191.757812 25.683594 192.160156 25.734375 196.398438 25.8125 C 202.054688 25.941406 203.398438 25.683594 205.003906 24.265625 C 206.9375 22.535156 206.988281 22.203125 206.988281 10.339844 L 206.988281 0.0742188 L 202.96875 0.0742188 Z M 202.96875 10.210938 "/>
<path style=" stroke:none;fill-rule:nonzero;fill:rgb(7.45098%,19.215686%,36.078431%);fill-opacity:1;" d="M 22.890625 0.847656 C 19.964844 1.207031 16.695312 3.015625 14.199219 5.644531 C 12.539062 7.371094 11.652344 8.972656 11.25 10.90625 C 11.007812 12.144531 10.417969 18.332031 10.417969 19.804688 C 10.417969 20.164062 8.972656 21.609375 5.96875 24.289062 C -0.171875 29.757812 -0.628906 30.453125 0.46875 32.519531 C 1.113281 33.703125 1.972656 34.554688 6.183594 38.191406 C 8.03125 39.789062 9.75 41.46875 9.988281 41.929688 C 10.257812 42.5 10.5 44.175781 10.660156 46.675781 C 11.0625 52.324219 11.867188 54.386719 14.816406 57.199219 C 17.6875 59.960938 19.859375 60.9375 24.445312 61.609375 C 27.957031 62.125 33.457031 61.996094 34.824219 61.378906 C 36.96875 60.371094 37.828125 57.40625 36.457031 55.574219 C 35.414062 54.15625 34.179688 53.742188 29.675781 53.332031 C 23.34375 52.738281 23.023438 52.660156 22.324219 51.34375 C 21.574219 49.925781 21.414062 49.050781 21.144531 45 C 20.824219 39.585938 20.339844 38.554688 15.917969 34.167969 C 14.171875 32.414062 12.804688 30.96875 12.859375 30.945312 C 12.914062 30.917969 14.121094 29.863281 15.542969 28.625 C 19.859375 24.882812 20.742188 23.078125 21.144531 17.148438 C 21.441406 12.738281 21.683594 11.757812 22.703125 10.699219 C 23.667969 9.71875 24.632812 9.488281 29.675781 8.996094 C 34.421875 8.558594 35.921875 8.042969 36.753906 6.519531 C 37.398438 5.386719 37.261719 3.425781 36.511719 2.445312 C 35.304688 0.898438 34.609375 0.71875 29.324219 0.667969 C 26.671875 0.667969 23.773438 0.71875 22.890625 0.847656 Z M 22.890625 0.847656 "/>
<path style=" stroke:none;fill-rule:nonzero;fill:rgb(7.45098%,19.215686%,36.078431%);fill-opacity:1;" d="M 144.371094 2.367188 C 143.058594 2.9375 141.742188 4.328125 141.261719 5.671875 C 140.964844 6.417969 140.886719 8.480469 140.886719 14.128906 C 140.886719 21.351562 140.914062 21.632812 141.476562 22.691406 C 142.253906 24.058594 143.726562 25.21875 145.203125 25.582031 C 145.898438 25.761719 149.386719 25.863281 154 25.863281 L 161.667969 25.863281 L 161.667969 21.480469 L 153.8125 21.480469 C 147.457031 21.480469 145.847656 21.402344 145.417969 21.117188 C 144.933594 20.757812 144.90625 20.371094 144.90625 13.921875 C 144.90625 8.53125 144.988281 7.035156 145.285156 6.703125 C 145.605469 6.316406 146.542969 6.261719 153.652344 6.261719 L 161.667969 6.261719 L 161.667969 1.878906 L 153.570312 1.878906 C 146.300781 1.878906 145.335938 1.929688 144.371094 2.367188 Z M 144.371094 2.367188 "/>
<path style=" stroke:none;fill-rule:nonzero;fill:rgb(7.45098%,19.215686%,36.078431%);fill-opacity:1;" d="M 168.777344 8.199219 C 168.160156 8.402344 167.21875 9.074219 166.578125 9.746094 C 165.074219 11.316406 164.804688 12.683594 164.941406 17.714844 C 165.046875 22.074219 165.34375 23 167.140625 24.523438 C 168.507812 25.65625 170.144531 25.914062 175.480469 25.8125 C 179.90625 25.734375 180.066406 25.710938 181.300781 25.011719 C 182.128906 24.546875 182.828125 23.878906 183.308594 23.078125 L 184.0625 21.867188 L 184.0625 11.808594 L 183.308594 10.570312 C 182.910156 9.898438 182.050781 9.023438 181.460938 8.636719 C 180.359375 7.941406 180.308594 7.941406 175.105469 7.886719 C 171.082031 7.835938 169.605469 7.886719 168.777344 8.199219 Z M 179.019531 12.222656 C 179.421875 12.351562 179.851562 12.632812 179.957031 12.789062 C 180.066406 12.96875 180.171875 14.773438 180.171875 16.8125 C 180.171875 19.933594 180.09375 20.601562 179.71875 21.015625 C 179.339844 21.429688 178.804688 21.480469 174.515625 21.480469 C 168.5625 21.480469 168.910156 21.761719 168.910156 16.890625 C 168.910156 13.277344 169.097656 12.582031 170.0625 12.195312 C 170.894531 11.859375 178.109375 11.886719 179.019531 12.222656 Z M 179.019531 12.222656 "/>
<path style=" stroke:none;fill-rule:nonzero;fill:rgb(7.45098%,19.215686%,36.078431%);fill-opacity:1;" d="M 214.230469 8.222656 C 212.996094 8.738281 212.164062 9.511719 211.46875 10.777344 C 210.933594 11.730469 210.878906 12.167969 210.878906 16.863281 L 210.878906 21.917969 L 211.683594 23.183594 C 212.21875 23.980469 212.945312 24.675781 213.695312 25.089844 C 214.820312 25.683594 215.195312 25.734375 219.40625 25.8125 L 223.886719 25.914062 L 223.886719 21.738281 L 215.597656 21.738281 L 215.035156 21.042969 C 214.5 20.371094 214.472656 20.085938 214.550781 16.503906 C 214.632812 13.046875 214.6875 12.632812 215.144531 12.296875 C 215.945312 11.730469 224.742188 11.78125 225.332031 12.351562 C 226.191406 13.175781 226.085938 14.722656 225.117188 15.339844 C 224.957031 15.445312 222.972656 15.546875 220.746094 15.546875 L 216.644531 15.546875 L 216.644531 19.675781 L 220.933594 19.675781 C 224.207031 19.675781 225.46875 19.570312 226.246094 19.289062 C 228.523438 18.359375 229.625 16.578125 229.625 13.742188 C 229.652344 12.09375 229.542969 11.628906 228.898438 10.597656 C 227.425781 8.171875 226.296875 7.8125 220.023438 7.8125 C 216.296875 7.835938 214.953125 7.914062 214.230469 8.222656 Z M 214.230469 8.222656 "/>
<path style=" stroke:none;fill-rule:nonzero;fill:rgb(7.45098%,19.215686%,36.078431%);fill-opacity:1;" d="M 44.90625 11.34375 L 43.40625 12.554688 L 43.40625 41.621094 L 44.371094 42.449219 C 46.085938 43.890625 46.003906 43.890625 56.222656 43.917969 C 62.175781 43.917969 65.664062 44.019531 65.664062 44.175781 C 65.664062 44.5625 64.320312 47.890625 64.054688 48.148438 C 63.917969 48.277344 62.230469 48.457031 60.328125 48.558594 C 56.492188 48.765625 55.472656 49.128906 55.472656 50.210938 C 55.472656 51.527344 55.339844 51.527344 70.0625 51.601562 L 83.765625 51.679688 L 84.675781 50.234375 C 85.160156 49.410156 86.230469 48.121094 87.007812 47.320312 C 88.644531 45.671875 89.421875 43.996094 89.824219 41.363281 C 90.09375 39.507812 90.710938 38.398438 92.105469 37.238281 C 93.070312 36.414062 93.980469 36.078125 94.8125 36.230469 C 95.539062 36.359375 96.046875 38.089844 95.886719 40.023438 C 95.777344 41.363281 95.589844 41.878906 94.8125 42.964844 C 93.792969 44.328125 93.714844 44.847656 94.597656 44.070312 C 95.539062 43.246094 97.28125 39.507812 97.628906 37.597656 C 97.898438 35.949219 97.871094 35.613281 97.335938 33.988281 C 96.609375 31.769531 96.503906 30.609375 96.289062 20.527344 L 96.101562 12.480469 L 94.894531 11.292969 L 93.714844 10.132812 L 46.40625 10.132812 Z M 90.871094 22.484375 L 90.871094 29.914062 L 89.207031 30.09375 C 87.007812 30.351562 84.945312 31.410156 82.90625 33.34375 C 81.351562 34.8125 79.902344 37.160156 79.445312 38.863281 L 79.257812 39.609375 L 71.214844 39.457031 C 66.789062 39.351562 60.03125 39.273438 56.222656 39.273438 L 49.304688 39.273438 L 49.304688 15.03125 L 90.871094 15.03125 Z M 88.726562 32.570312 C 89.019531 32.851562 89.261719 33.421875 89.261719 33.832031 C 89.261719 35.328125 87.089844 35.820312 86.179688 34.554688 C 85.640625 33.832031 85.667969 33.550781 86.339844 32.722656 C 87.007812 31.925781 87.976562 31.847656 88.726562 32.570312 Z M 93.957031 32.671875 C 94.734375 33.78125 93.957031 35.148438 92.535156 35.148438 C 91.945312 35.148438 91.273438 34.476562 91.085938 33.679688 C 90.710938 32.207031 93.070312 31.355469 93.957031 32.671875 Z M 85.292969 35.84375 C 85.828125 36.308594 85.910156 37.003906 85.480469 37.753906 C 84.757812 39.070312 82.558594 38.65625 82.558594 37.210938 C 82.558594 35.742188 84.21875 34.890625 85.292969 35.84375 Z M 83.363281 40.28125 C 83.953125 41.363281 83.335938 43.144531 82.371094 43.144531 C 81.644531 43.144531 80.679688 42.085938 80.679688 41.3125 C 80.679688 40.023438 82.773438 39.222656 83.363281 40.28125 Z M 78.050781 44.328125 C 78.617188 44.484375 78.777344 44.949219 78.992188 46.753906 L 79.152344 48.222656 L 78.347656 48.378906 C 76.871094 48.664062 76.042969 48.277344 75.371094 46.933594 C 75.050781 46.265625 74.699219 45.386719 74.621094 44.976562 C 74.457031 44.304688 74.539062 44.199219 75.210938 44.097656 C 75.960938 43.996094 77.140625 44.097656 78.050781 44.328125 Z M 78.050781 44.328125 "/>
<path style=" stroke:none;fill-rule:nonzero;fill:rgb(7.45098%,19.215686%,36.078431%);fill-opacity:1;" d="M 74.457031 22.019531 C 73.519531 22.535156 73.894531 23.515625 75.746094 25.347656 L 77.515625 27.101562 L 75.71875 28.804688 C 74.246094 30.195312 73.949219 30.609375 74.03125 31.203125 C 74.164062 32.335938 75.289062 32.59375 76.820312 31.820312 C 78.078125 31.175781 81.753906 27.644531 81.753906 27.078125 C 81.753906 26.535156 77.730469 22.898438 76.46875 22.277344 C 75.183594 21.660156 75.101562 21.660156 74.457031 22.019531 Z M 74.457031 22.019531 "/>
<path style=" stroke:none;fill-rule:nonzero;fill:rgb(7.45098%,19.215686%,36.078431%);fill-opacity:1;" d="M 63.195312 22.535156 C 61.722656 23.285156 58.421875 26.40625 58.421875 27.050781 C 58.421875 27.410156 59.171875 28.289062 60.460938 29.449219 C 62.6875 31.511719 63.894531 32.3125 64.75 32.3125 C 65.367188 32.3125 66.199219 31.5625 66.199219 30.996094 C 66.199219 30.789062 65.421875 29.863281 64.457031 28.957031 C 63.492188 28.054688 62.714844 27.230469 62.714844 27.152344 C 62.714844 27.078125 63.382812 26.355469 64.1875 25.503906 C 65.664062 24.007812 66.117188 23.128906 65.824219 22.382812 C 65.609375 21.839844 64.402344 21.917969 63.195312 22.535156 Z M 63.195312 22.535156 "/>
<path style=" stroke:none;fill-rule:nonzero;fill:rgb(7.45098%,19.215686%,36.078431%);fill-opacity:1;" d="M 211.550781 45.722656 L 211.550781 58.617188 L 214.765625 58.617188 L 214.765625 32.828125 L 211.550781 32.828125 Z M 211.550781 45.722656 "/>
<path style=" stroke:none;fill-rule:nonzero;fill:rgb(7.45098%,19.215686%,36.078431%);fill-opacity:1;" d="M 263.304688 34.761719 L 263.304688 36.695312 L 266.257812 36.695312 L 266.257812 32.828125 L 263.304688 32.828125 Z M 263.304688 34.761719 "/>
<path style=" stroke:none;fill-rule:nonzero;fill:rgb(7.45098%,19.215686%,36.078431%);fill-opacity:1;" d="M 147.054688 35.097656 C 145.203125 35.714844 143.890625 36.722656 142.628906 38.554688 C 140.644531 41.414062 140.214844 43.941406 140.214844 52.738281 L 140.214844 58.617188 L 143.40625 58.617188 L 143.488281 55.730469 L 143.566406 52.816406 L 149.679688 52.738281 L 155.769531 52.6875 L 155.769531 58.617188 L 159.015625 58.617188 L 158.933594 47.167969 C 158.851562 36.335938 158.828125 35.691406 158.34375 35.175781 C 157.859375 34.660156 157.566406 34.632812 153.113281 34.632812 C 149.359375 34.660156 148.125 34.734375 147.054688 35.097656 Z M 155.769531 43.660156 L 155.769531 48.300781 L 143.351562 48.300781 L 143.511719 46.289062 C 143.808594 42.78125 145.015625 40.617188 147.320312 39.457031 C 147.9375 39.121094 149.011719 39.042969 151.960938 39.015625 L 155.769531 39.015625 Z M 155.769531 43.660156 "/>
<path style=" stroke:none;fill-rule:nonzero;fill:rgb(7.45098%,19.215686%,36.078431%);fill-opacity:1;" d="M 199.75 37.597656 L 199.75 40.566406 L 195.191406 40.566406 L 195.191406 44.664062 L 197.417969 44.742188 L 199.617188 44.820312 L 199.695312 51.707031 L 199.75 58.617188 L 202.96875 58.617188 L 202.96875 44.691406 L 208.867188 44.691406 L 208.867188 40.566406 L 202.96875 40.566406 L 202.96875 34.632812 L 199.75 34.632812 Z M 199.75 37.597656 "/>
<path style=" stroke:none;fill-rule:nonzero;fill:rgb(7.45098%,19.215686%,36.078431%);fill-opacity:1;" d="M 251.507812 37.597656 L 251.507812 40.566406 L 246.949219 40.566406 L 246.949219 44.664062 L 249.175781 44.742188 L 251.371094 44.820312 L 251.453125 51.707031 L 251.507812 58.617188 L 254.726562 58.617188 L 254.726562 44.691406 L 260.625 44.691406 L 260.625 40.566406 L 254.726562 40.566406 L 254.726562 34.632812 L 251.507812 34.632812 Z M 251.507812 37.597656 "/>
<path style=" stroke:none;fill-rule:nonzero;fill:rgb(7.45098%,19.215686%,36.078431%);fill-opacity:1;" d="M 93.257812 37.546875 C 92.722656 37.882812 92.023438 38.757812 91.570312 39.636719 L 90.765625 41.132812 L 91.757812 42.007812 C 92.292969 42.5 92.855469 42.886719 92.964844 42.886719 C 93.097656 42.886719 93.527344 42.601562 93.929688 42.242188 C 94.570312 41.648438 94.625 41.46875 94.625 39.273438 C 94.625 38.011719 94.519531 36.953125 94.382812 36.953125 C 94.277344 36.953125 93.765625 37.210938 93.257812 37.546875 Z M 94.359375 40.953125 C 94.359375 41.339844 93.632812 42.113281 93.257812 42.113281 C 92.882812 42.113281 92.964844 41.519531 93.445312 40.875 C 93.875 40.28125 94.359375 40.332031 94.359375 40.953125 Z M 94.359375 40.953125 "/>
<path style=" stroke:none;fill-rule:nonzero;fill:rgb(7.45098%,19.215686%,36.078431%);fill-opacity:1;" d="M 165.261719 41.054688 C 162.929688 42.421875 162.394531 44.253906 162.527344 50.3125 C 162.632812 55.472656 162.902344 56.375 164.804688 57.765625 C 165.746094 58.464844 165.90625 58.488281 169.5 58.566406 L 173.199219 58.667969 L 173.199219 54.492188 L 169.875 54.492188 C 166.175781 54.492188 165.851562 54.363281 165.558594 52.839844 C 165.234375 51.292969 165.53125 45.59375 165.933594 45.128906 C 166.226562 44.769531 166.898438 44.691406 170.144531 44.691406 C 173.789062 44.691406 174.003906 44.71875 174.378906 45.257812 C 174.621094 45.566406 174.808594 46.136719 174.808594 46.496094 C 174.808594 46.859375 174.621094 47.425781 174.378906 47.734375 C 174.003906 48.277344 173.789062 48.300781 170.625 48.300781 L 167.300781 48.300781 L 167.300781 52.480469 L 171 52.375 C 174.300781 52.300781 174.753906 52.246094 175.535156 51.707031 C 177.839844 50.132812 178.511719 45.285156 176.765625 42.679688 C 175.507812 40.824219 174.675781 40.566406 170.089844 40.566406 C 166.65625 40.566406 165.988281 40.640625 165.261719 41.054688 Z M 165.261719 41.054688 "/>
<path style=" stroke:none;fill-rule:nonzero;fill:rgb(7.45098%,19.215686%,36.078431%);fill-opacity:1;" d="M 182.453125 40.925781 C 180.816406 41.621094 179.929688 43.296875 179.929688 45.722656 C 179.90625 47.449219 180.574219 48.972656 181.753906 49.925781 C 182.613281 50.597656 182.71875 50.621094 186.097656 50.621094 C 189.210938 50.621094 189.613281 50.675781 190.09375 51.136719 C 190.738281 51.757812 190.820312 53.253906 190.203125 53.820312 C 189.855469 54.15625 188.996094 54.234375 184.972656 54.234375 L 180.171875 54.234375 L 180.171875 58.617188 L 184.945312 58.617188 C 190.203125 58.617188 191.300781 58.359375 192.457031 56.941406 C 194.441406 54.515625 194.199219 49.976562 191.972656 47.683594 L 190.925781 46.625 L 187.089844 46.496094 C 183.308594 46.367188 183.257812 46.367188 183.175781 45.75 C 183.121094 45.414062 183.230469 45.027344 183.445312 44.921875 C 183.632812 44.792969 185.699219 44.691406 188.03125 44.691406 L 192.242188 44.691406 L 192.242188 40.566406 L 187.761719 40.566406 C 184.625 40.589844 183.015625 40.695312 182.453125 40.925781 Z M 182.453125 40.925781 "/>
<path style=" stroke:none;fill-rule:nonzero;fill:rgb(7.45098%,19.215686%,36.078431%);fill-opacity:1;" d="M 216.375 42.628906 L 216.375 44.691406 L 219.273438 44.691406 C 220.855469 44.691406 222.410156 44.769531 222.707031 44.847656 C 223.75 45.105469 223.886719 45.953125 223.886719 52.429688 L 223.886719 58.617188 L 227.15625 58.617188 L 227.050781 51.707031 C 226.941406 44.589844 226.835938 43.867188 225.707031 42.292969 C 224.691406 40.925781 223.484375 40.566406 219.726562 40.566406 L 216.375 40.566406 Z M 216.375 42.628906 "/>
<path style=" stroke:none;fill-rule:nonzero;fill:rgb(7.45098%,19.215686%,36.078431%);fill-opacity:1;" d="M 232.84375 41.054688 C 230.507812 42.421875 229.972656 44.253906 230.105469 50.3125 C 230.214844 55.472656 230.480469 56.375 232.386719 57.765625 C 233.324219 58.464844 233.484375 58.488281 237.078125 58.566406 L 240.78125 58.667969 L 240.78125 54.492188 L 237.453125 54.492188 C 233.753906 54.492188 233.433594 54.363281 233.136719 52.839844 C 232.816406 51.292969 233.109375 45.59375 233.511719 45.128906 C 233.808594 44.769531 234.476562 44.691406 237.722656 44.691406 C 241.371094 44.691406 241.585938 44.71875 241.960938 45.257812 C 242.203125 45.566406 242.390625 46.136719 242.390625 46.496094 C 242.390625 46.859375 242.203125 47.425781 241.960938 47.734375 C 241.585938 48.277344 241.371094 48.300781 238.207031 48.300781 L 234.878906 48.300781 L 234.878906 52.480469 L 238.582031 52.375 C 241.878906 52.300781 242.335938 52.246094 243.113281 51.707031 C 245.417969 50.132812 246.089844 45.285156 244.347656 42.679688 C 243.085938 40.824219 242.253906 40.566406 237.667969 40.566406 C 234.238281 40.566406 233.566406 40.640625 232.84375 41.054688 Z M 232.84375 41.054688 "/>
<path style=" stroke:none;fill-rule:nonzero;fill:rgb(7.45098%,19.215686%,36.078431%);fill-opacity:1;" d="M 263.304688 49.589844 L 263.304688 58.617188 L 266.257812 58.617188 L 266.257812 40.566406 L 263.304688 40.566406 Z M 263.304688 49.589844 "/>
<path style=" stroke:none;fill-rule:nonzero;fill:rgb(7.45098%,19.215686%,36.078431%);fill-opacity:1;" d="M 272.425781 41.054688 C 271.914062 41.3125 271.136719 42.085938 270.679688 42.757812 L 269.875 43.996094 L 269.796875 49.050781 C 269.6875 54.671875 269.851562 55.550781 271.164062 56.992188 C 272.53125 58.488281 273.148438 58.617188 278.59375 58.617188 L 283.417969 58.617188 L 283.417969 54.234375 L 278.484375 54.234375 C 274.222656 54.234375 273.523438 54.183594 273.203125 53.796875 C 272.90625 53.484375 272.828125 52.402344 272.828125 49.539062 C 272.828125 44.40625 272.476562 44.691406 278.753906 44.691406 L 283.417969 44.691406 L 283.417969 40.566406 L 278.378906 40.566406 C 274.007812 40.566406 273.230469 40.617188 272.425781 41.054688 Z M 272.425781 41.054688 "/>
<path style=" stroke:none;fill-rule:nonzero;fill:rgb(7.45098%,19.215686%,36.078431%);fill-opacity:1;" d="M 288.648438 40.925781 C 287.011719 41.621094 286.128906 43.296875 286.128906 45.722656 C 286.101562 47.449219 286.773438 48.972656 287.953125 49.925781 C 288.808594 50.597656 288.917969 50.621094 292.296875 50.621094 C 295.40625 50.621094 295.808594 50.675781 296.292969 51.136719 C 296.9375 51.757812 297.015625 53.253906 296.398438 53.820312 C 296.050781 54.15625 295.191406 54.234375 291.167969 54.234375 L 286.371094 54.234375 L 286.371094 58.617188 L 291.144531 58.617188 C 296.398438 58.617188 297.5 58.359375 298.652344 56.941406 C 300.636719 54.515625 300.394531 49.976562 298.167969 47.683594 L 297.125 46.625 L 293.289062 46.496094 C 289.507812 46.367188 289.453125 46.367188 289.375 45.75 C 289.320312 45.414062 289.425781 45.027344 289.640625 44.921875 C 289.828125 44.792969 291.894531 44.691406 294.226562 44.691406 L 298.4375 44.691406 L 298.4375 40.566406 L 293.957031 40.566406 C 290.820312 40.589844 289.210938 40.695312 288.648438 40.925781 Z M 288.648438 40.925781 "/>
<path style=" stroke:none;fill-rule:nonzero;fill:rgb(7.45098%,19.215686%,36.078431%);fill-opacity:1;" d="M 90.765625 43.453125 C 90.199219 44.328125 87.789062 51.34375 88 51.550781 C 88.457031 51.988281 89.101562 51.136719 90.84375 47.785156 C 91.890625 45.773438 92.75 43.96875 92.75 43.789062 C 92.75 43.425781 91.96875 42.886719 91.433594 42.886719 C 91.273438 42.886719 90.976562 43.144531 90.765625 43.453125 Z M 90.765625 43.453125 "/>
</g>
</svg>
