<?xml version="1.0" standalone="no"?>
<!DOCTYPE svg PUBLIC "-//W3C//DTD SVG 1.0//EN" "http://www.w3.org/TR/2001/REC-SVG-20010904/DTD/svg10.dtd">
<svg xmlns="http://www.w3.org/2000/svg" xmlns:xlink="http://www.w3.org/1999/xlink" id="body_1" width="30" height="30">

<g transform="matrix(0.10416667 0 0 0.10416667 0 0)">
	<g transform="matrix(0.5625 0 0 0.5625 0 0)">
        <path d="M32 64L32 96L0 96L0 64C 0 28.65 28.65 0 64 0L64 0L96 0L96 32L64 32C 46.33 32 32 46.33 32 64zM224 32L128 32L128 0L224 0L224 32zM32 224L0 224L0 128L32 128L32 224zM32 256L32 288C 32 305.7 46.33 320 64 320L64 320L96 320L96 352L64 352C 28.65 352 0 323.3 0 288L0 288L0 256L32 256zM128 352L128 320L224 320L224 352L128 352zM192 384L192 448C 192 465.7 206.3 480 224 480L224 480L448 480C 465.7 480 480 465.7 480 448L480 448L480 224C 480 206.3 465.7 192 448 192L448 192L384 192L384 160L448 160C 483.3 160 512 188.7 512 224L512 224L512 448C 512 483.3 483.3 512 448 512L448 512L224 512C 188.7 512 160 483.3 160 448L160 448L160 384L192 384zM352 224L320 224L320 128L352 128L352 224zM352 64L352 96L320 96L320 64C 320 46.33 305.7 32 288 32L288 32L256 32L256 0L288 0C 323.3 0 352 28.65 352 64zM256 320L288 320C 305.7 320 320 305.7 320 288L320 288L320 256L352 256L352 288C 352 323.3 323.3 352 288 352L288 352L256 352L256 320z" stroke="none" fill="#E63946" fill-rule="nonzero" />
	</g>
</g>
</svg>