<?xml version="1.0" standalone="no"?>
<!DOCTYPE svg PUBLIC "-//W3C//DTD SVG 1.0//EN" "http://www.w3.org/TR/2001/REC-SVG-20010904/DTD/svg10.dtd">
<svg xmlns="http://www.w3.org/2000/svg" xmlns:xlink="http://www.w3.org/1999/xlink" id="body_1" width="30" height="30">

<g transform="matrix(0.10416667 0 0 0.10416667 0 0)">
	<g transform="matrix(0.5625 0 0 0.5625 0 0)">
        <path d="M262.9 67.95C 261.5 65.5 258.8 64 256 64C 253.2 64 250.5 65.5 249.1 67.95L249.1 67.95L221.5 51.75C 228.7 39.52 241.8 32 256 32C 270.2 32 283.3 39.52 290.5 51.75L290.5 51.75L506.5 419.8C 513.8 432.1 513.8 447.4 506.7 459.9C 499.6 472.3 486.3 480 472 480L472 480L40 480C 25.66 480 12.41 472.3 5.287 459.9C -1.839 447.4 -1.756 432.1 5.503 419.8L5.503 419.8L221.5 51.75L249.1 67.95L33.1 435.1C 31.65 438.4 31.63 441.5 33.06 443.1C 34.48 446.5 37.13 448 40 448L40 448L472 448C 474.9 448 477.5 446.5 478.9 443.1C 480.4 441.5 480.4 438.4 478.9 435.1L478.9 435.1L262.9 67.95z" stroke="none" fill="#E63946" fill-rule="nonzero" />
	</g>
</g>
</svg>