<?xml version="1.0" standalone="no"?>
<!DOCTYPE svg PUBLIC "-//W3C//DTD SVG 1.0//EN" "http://www.w3.org/TR/2001/REC-SVG-20010904/DTD/svg10.dtd">
<svg xmlns="http://www.w3.org/2000/svg" xmlns:xlink="http://www.w3.org/1999/xlink" id="body_1" width="30" height="30">

<g transform="matrix(0.10416667 0 0 0.10416667 0 0)">
	<g transform="matrix(0.45 0 0 0.45 -0 28.8)">
        <path d="M633.6 274.9L490.49997 467.2C 483.6 475.2 474.1 480 463.1 480C 452.1 480 443.54 475.242 437.51 467.17L437.51 467.17L176 116.8L57.6 274.9C 47.02 289.1 26.99 291.9 12.8 281.3C -1.3400002 270.69 -3.3000002 250.59 6.4090004 236.44998L6.4090004 236.44998L149.509 44.14998C 161.569 27.999979 188.629 27.999979 200.699 44.14998L200.699 44.14998L463.099 394.55L581.499 236.44998C 592.08905 222.26999 612.119 220.34998 626.299 230.03299C 641.3 240.6 644.2 260.7 633.6 274.9z" stroke="none" fill="#C77DFF" fill-rule="nonzero" />
	</g>
</g>
</svg>